# xmcd
#
# Track frame offsets:
# 150
# 17115
# 27481
# 39209
# 60228
# 73304
# 87551
# 100752
# 116583
# 131492
# 151873
#
# Disc length: 2276 seconds
#
#
# Revision: 0
# Processed by: cddbd v1.4PL0 Copyright (c) Steve Scherf et al.
# Submitted via: FreeRIP 2.00 
#
DISCID=8908e20b
DTITLE=Terry Leon and the High Lonesome Angels - City Country Boy
DYEAR=2000
DGENRE=Country
TTITLE0=It's A Crazy World
TTITLE1=You Won't See Me
TTITLE2=Tips In My Hat
TTITLE3=Simply A Man
TTITLE4=Around Again
TTITLE5=How Far We Would Ride
TTITLE6=No Chance
TTITLE7=Same ole Same
TTITLE8=Quagmire
TTITLE9=Hilltop Highway
TTITLE10=City Country Boy
EXTD=
EXTT0=
EXTT1=
EXTT2=
EXTT3=
EXTT4=
EXTT5=
EXTT6=
EXTT7=
EXTT8=
EXTT9=
EXTT10=
PLAYORDER=
